<mxfile host="app.diagrams.net" agent="Mozilla/5.0 (Windows NT 10.0; Win64; x64) AppleWebKit/537.36 (KHTML, like Gecko) Chrome/122.0.0.0 Safari/537.36" version="25.0.3">
  <diagram name="Trang-1" id="G4h9ja2mfrsMN4oZUiwR">
    <mxGraphModel dx="1050" dy="522" grid="1" gridSize="10" guides="1" tooltips="1" connect="1" arrows="1" fold="1" page="1" pageScale="1" pageWidth="827" pageHeight="1169" math="0" shadow="0">
      <root>
        <mxCell id="0" />
        <mxCell id="1" parent="0" />
        <mxCell id="nhEuf4DRmhssYW6jspNy-1" value="&lt;div&gt;System&lt;/div&gt;&lt;div&gt;&lt;br&gt;&lt;/div&gt;&lt;div&gt;&lt;br&gt;&lt;/div&gt;&lt;div&gt;&lt;br&gt;&lt;/div&gt;&lt;div&gt;&lt;br&gt;&lt;/div&gt;&lt;div&gt;&lt;br&gt;&lt;/div&gt;&lt;div&gt;&lt;br&gt;&lt;/div&gt;&lt;div&gt;&lt;br&gt;&lt;/div&gt;&lt;div&gt;&lt;br&gt;&lt;/div&gt;&lt;div&gt;&lt;br&gt;&lt;/div&gt;&lt;div&gt;&lt;br&gt;&lt;/div&gt;&lt;div&gt;&lt;br&gt;&lt;/div&gt;&lt;div&gt;&lt;br&gt;&lt;/div&gt;&lt;div&gt;&lt;br&gt;&lt;/div&gt;&lt;div&gt;&lt;br&gt;&lt;/div&gt;&lt;div&gt;&lt;br&gt;&lt;/div&gt;&lt;div&gt;&lt;br&gt;&lt;/div&gt;&lt;div&gt;&lt;br&gt;&lt;/div&gt;&lt;div&gt;&lt;br&gt;&lt;/div&gt;&lt;div&gt;&lt;br&gt;&lt;/div&gt;&lt;div&gt;&lt;br&gt;&lt;/div&gt;&lt;div&gt;&lt;br&gt;&lt;/div&gt;&lt;div&gt;&lt;br&gt;&lt;/div&gt;" style="html=1;whiteSpace=wrap;align=center;" parent="1" vertex="1">
          <mxGeometry x="299" y="40" width="251" height="340" as="geometry" />
        </mxCell>
        <mxCell id="nhEuf4DRmhssYW6jspNy-3" value="On Demand Tutor" style="ellipse;whiteSpace=wrap;html=1;" parent="1" vertex="1">
          <mxGeometry x="361" y="205" width="106" height="40" as="geometry" />
        </mxCell>
        <mxCell id="nhEuf4DRmhssYW6jspNy-4" value="Guest" style="shape=umlActor;verticalLabelPosition=bottom;verticalAlign=top;html=1;" parent="1" vertex="1">
          <mxGeometry x="600" y="195" width="30" height="60" as="geometry" />
        </mxCell>
        <mxCell id="nhEuf4DRmhssYW6jspNy-5" value="" style="endArrow=none;startArrow=none;endFill=0;startFill=0;endSize=8;html=1;verticalAlign=bottom;labelBackgroundColor=none;strokeWidth=1;rounded=0;entryX=0.5;entryY=0.5;entryDx=0;entryDy=0;entryPerimeter=0;" parent="1" target="nhEuf4DRmhssYW6jspNy-4" edge="1">
          <mxGeometry width="160" relative="1" as="geometry">
            <mxPoint x="467" y="224.5" as="sourcePoint" />
            <mxPoint x="550" y="225" as="targetPoint" />
            <Array as="points">
              <mxPoint x="547" y="224.5" />
            </Array>
          </mxGeometry>
        </mxCell>
        <mxCell id="nhEuf4DRmhssYW6jspNy-6" value="Visit" style="text;html=1;align=center;verticalAlign=middle;resizable=0;points=[];autosize=1;strokeColor=none;fillColor=none;" parent="1" vertex="1">
          <mxGeometry x="550" y="195" width="50" height="30" as="geometry" />
        </mxCell>
        <mxCell id="nhEuf4DRmhssYW6jspNy-8" style="edgeStyle=orthogonalEdgeStyle;rounded=0;orthogonalLoop=1;jettySize=auto;html=1;exitX=0.5;exitY=0.5;exitDx=0;exitDy=0;exitPerimeter=0;entryX=0.5;entryY=0;entryDx=0;entryDy=0;endArrow=none;endFill=0;" parent="1" source="nhEuf4DRmhssYW6jspNy-7" target="nhEuf4DRmhssYW6jspNy-3" edge="1">
          <mxGeometry relative="1" as="geometry">
            <Array as="points">
              <mxPoint x="414" y="70" />
            </Array>
          </mxGeometry>
        </mxCell>
        <mxCell id="nhEuf4DRmhssYW6jspNy-7" value="Student" style="shape=umlActor;verticalLabelPosition=bottom;verticalAlign=top;html=1;" parent="1" vertex="1">
          <mxGeometry x="170" y="40" width="30" height="60" as="geometry" />
        </mxCell>
        <mxCell id="nhEuf4DRmhssYW6jspNy-9" value="Use" style="text;html=1;align=center;verticalAlign=middle;resizable=0;points=[];autosize=1;strokeColor=none;fillColor=none;" parent="1" vertex="1">
          <mxGeometry x="250" y="70" width="40" height="30" as="geometry" />
        </mxCell>
        <mxCell id="tiPIF76HeHnst0YfVbQH-2" style="edgeStyle=orthogonalEdgeStyle;rounded=0;orthogonalLoop=1;jettySize=auto;html=1;exitX=0.5;exitY=0.5;exitDx=0;exitDy=0;exitPerimeter=0;entryX=0.5;entryY=1;entryDx=0;entryDy=0;endArrow=none;endFill=0;" edge="1" parent="1" source="tiPIF76HeHnst0YfVbQH-1" target="nhEuf4DRmhssYW6jspNy-3">
          <mxGeometry relative="1" as="geometry" />
        </mxCell>
        <mxCell id="tiPIF76HeHnst0YfVbQH-1" value="Tutor" style="shape=umlActor;verticalLabelPosition=bottom;verticalAlign=top;html=1;" vertex="1" parent="1">
          <mxGeometry x="170" y="310" width="30" height="60" as="geometry" />
        </mxCell>
        <mxCell id="tiPIF76HeHnst0YfVbQH-4" value="Manage" style="text;html=1;align=center;verticalAlign=middle;resizable=0;points=[];autosize=1;strokeColor=none;fillColor=none;" vertex="1" parent="1">
          <mxGeometry x="235" y="338" width="70" height="30" as="geometry" />
        </mxCell>
        <mxCell id="tiPIF76HeHnst0YfVbQH-10" style="edgeStyle=orthogonalEdgeStyle;rounded=0;orthogonalLoop=1;jettySize=auto;html=1;exitX=0.5;exitY=0.5;exitDx=0;exitDy=0;exitPerimeter=0;endArrow=none;endFill=0;entryX=0;entryY=1;entryDx=0;entryDy=0;" edge="1" parent="1" source="tiPIF76HeHnst0YfVbQH-5" target="nhEuf4DRmhssYW6jspNy-3">
          <mxGeometry relative="1" as="geometry">
            <Array as="points">
              <mxPoint x="377" y="250" />
            </Array>
          </mxGeometry>
        </mxCell>
        <mxCell id="tiPIF76HeHnst0YfVbQH-5" value="Admin" style="shape=umlActor;verticalLabelPosition=bottom;verticalAlign=top;html=1;" vertex="1" parent="1">
          <mxGeometry x="170" y="220" width="30" height="60" as="geometry" />
        </mxCell>
        <mxCell id="tiPIF76HeHnst0YfVbQH-11" value="Manage" style="text;html=1;align=center;verticalAlign=middle;resizable=0;points=[];autosize=1;strokeColor=none;fillColor=none;" vertex="1" parent="1">
          <mxGeometry x="215" y="250" width="70" height="30" as="geometry" />
        </mxCell>
        <mxCell id="tiPIF76HeHnst0YfVbQH-13" style="edgeStyle=orthogonalEdgeStyle;rounded=0;orthogonalLoop=1;jettySize=auto;html=1;exitX=0.5;exitY=0.5;exitDx=0;exitDy=0;exitPerimeter=0;entryX=0;entryY=0;entryDx=0;entryDy=0;endArrow=none;endFill=0;" edge="1" parent="1" source="tiPIF76HeHnst0YfVbQH-12" target="nhEuf4DRmhssYW6jspNy-3">
          <mxGeometry relative="1" as="geometry" />
        </mxCell>
        <mxCell id="tiPIF76HeHnst0YfVbQH-12" value="System handler" style="shape=umlActor;verticalLabelPosition=bottom;verticalAlign=top;html=1;" vertex="1" parent="1">
          <mxGeometry x="170" y="135" width="30" height="60" as="geometry" />
        </mxCell>
        <mxCell id="tiPIF76HeHnst0YfVbQH-14" value="Coordinate" style="text;html=1;align=center;verticalAlign=middle;resizable=0;points=[];autosize=1;strokeColor=none;fillColor=none;" vertex="1" parent="1">
          <mxGeometry x="200" y="138" width="80" height="30" as="geometry" />
        </mxCell>
        <mxCell id="tiPIF76HeHnst0YfVbQH-15" value="User" style="shape=umlActor;verticalLabelPosition=bottom;verticalAlign=top;html=1;" vertex="1" parent="1">
          <mxGeometry x="30" y="180" width="30" height="60" as="geometry" />
        </mxCell>
        <mxCell id="tiPIF76HeHnst0YfVbQH-21" value="" style="edgeStyle=none;html=1;endSize=12;endArrow=block;endFill=0;rounded=0;entryX=0.5;entryY=0;entryDx=0;entryDy=0;entryPerimeter=0;exitX=0.5;exitY=0.5;exitDx=0;exitDy=0;exitPerimeter=0;" edge="1" parent="1" source="nhEuf4DRmhssYW6jspNy-7" target="tiPIF76HeHnst0YfVbQH-15">
          <mxGeometry width="160" relative="1" as="geometry">
            <mxPoint x="10" y="90" as="sourcePoint" />
            <mxPoint x="170" y="90" as="targetPoint" />
          </mxGeometry>
        </mxCell>
        <mxCell id="tiPIF76HeHnst0YfVbQH-22" value="" style="edgeStyle=none;html=1;endSize=12;endArrow=block;endFill=0;rounded=0;entryX=1;entryY=0.3333333333333333;entryDx=0;entryDy=0;entryPerimeter=0;exitX=0.5;exitY=0.5;exitDx=0;exitDy=0;exitPerimeter=0;" edge="1" parent="1" source="tiPIF76HeHnst0YfVbQH-12" target="tiPIF76HeHnst0YfVbQH-15">
          <mxGeometry width="160" relative="1" as="geometry">
            <mxPoint x="190" y="168" as="sourcePoint" />
            <mxPoint x="50" y="278" as="targetPoint" />
          </mxGeometry>
        </mxCell>
        <mxCell id="tiPIF76HeHnst0YfVbQH-23" value="" style="edgeStyle=none;html=1;endSize=12;endArrow=block;endFill=0;rounded=0;" edge="1" parent="1">
          <mxGeometry width="160" relative="1" as="geometry">
            <mxPoint x="185" y="250" as="sourcePoint" />
            <mxPoint x="45" y="210" as="targetPoint" />
          </mxGeometry>
        </mxCell>
        <mxCell id="tiPIF76HeHnst0YfVbQH-24" value="" style="edgeStyle=none;html=1;endSize=12;endArrow=block;endFill=0;rounded=0;entryX=1;entryY=1;entryDx=0;entryDy=0;entryPerimeter=0;" edge="1" parent="1" target="tiPIF76HeHnst0YfVbQH-15">
          <mxGeometry width="160" relative="1" as="geometry">
            <mxPoint x="190" y="340" as="sourcePoint" />
            <mxPoint x="50" y="300" as="targetPoint" />
          </mxGeometry>
        </mxCell>
      </root>
    </mxGraphModel>
  </diagram>
</mxfile>
